<svg id="Layer_1" data-name="Layer 1" xmlns="http://www.w3.org/2000/svg" viewBox="0 0 1100 740"><defs><style>.cls-1{fill:#1d1d1b;}.cls-2{fill:#fff;}</style></defs><rect class="cls-1" width="1100" height="740"/><path class="cls-2" d="M415,456q4.57,4.19,4.58,11.66t-4.47,11.83q-4.47,4.35-13.63,4.35h-11v-32h11.32Q410.37,451.75,415,456Zm-5.25,19q2.63-2.48,2.63-7.2t-2.63-7.26c-1.76-1.7-4.46-2.54-8.09-2.54h-4v19.48h4.54Q407.07,477.47,409.7,475Z"/><path class="cls-2" d="M453.12,483.79l-3-6.92H436.72l-3,6.92h-7.61l13.84-32h6.92l13.84,32Zm-9.67-22.5-4,9.3h8Z"/><path class="cls-2" d="M481.17,457.94v25.85H474V457.94H465v-6.19h25.3v6.19Z"/><path class="cls-2" d="M521.46,483.79l-3-6.92H505.05l-3,6.92h-7.61l13.84-32h6.92l13.84,32Zm-9.67-22.5-4,9.3h8Z"/><path class="cls-2" d="M569.84,452.83a16.6,16.6,0,0,1,5.06,3.05l-.58.58a15.64,15.64,0,0,0-4.77-2.84,15.83,15.83,0,0,0-5.64-1,15.49,15.49,0,0,0-7.79,2,15.72,15.72,0,0,0-5.69,5.53,14.29,14.29,0,0,0-2.12,7.55,14.45,14.45,0,0,0,2.12,7.59,15.77,15.77,0,0,0,19.09,6.56,16.2,16.2,0,0,0,4.8-2.87l.62.61a16.68,16.68,0,0,1-5.08,3.06,16.62,16.62,0,0,1-20.19-6.95,15.46,15.46,0,0,1,0-16,16.67,16.67,0,0,1,20.17-6.91Z"/><path class="cls-2" d="M563.91,484.18a16.69,16.69,0,0,1-8.43-2.23,17,17,0,0,1-6.15-6,15.9,15.9,0,0,1,0-16.41A17.09,17.09,0,0,1,570,452.46a17.08,17.08,0,0,1,5.18,3.13l.31.27L574.34,457l-.28-.24a15.19,15.19,0,0,0-4.65-2.77,15.5,15.5,0,0,0-5.5-1,15.12,15.12,0,0,0-7.59,2,15.32,15.32,0,0,0-5.56,5.4,14,14,0,0,0-2,7.34,14.17,14.17,0,0,0,2,7.39,15.24,15.24,0,0,0,13.15,7.39,15.07,15.07,0,0,0,5.47-1,15.72,15.72,0,0,0,4.68-2.79l.27-.24,1.2,1.15-.33.28a17,17,0,0,1-11.29,4.26Zm0-32A16.16,16.16,0,0,0,550,460a15.09,15.09,0,0,0,0,15.59,16.37,16.37,0,0,0,5.87,5.73,16.27,16.27,0,0,0,13.85,1.06,16.33,16.33,0,0,0,4.64-2.72l-.06-.06a16.55,16.55,0,0,1-4.64,2.7,16.09,16.09,0,0,1-19.57-6.72,14.89,14.89,0,0,1-2.17-7.79,14.73,14.73,0,0,1,2.17-7.75,16.26,16.26,0,0,1,24.21-4.06l0,0a16.36,16.36,0,0,0-4.62-2.72A16.07,16.07,0,0,0,563.91,452.14Z"/><path class="cls-2" d="M609.76,468.92a10.53,10.53,0,0,1-6.13,3.5l8.28,11.37h-1.14l-8.15-11.19c-1.22.12-2.2.18-2.93.18h-10v11h-.92V451.74h10.88q5.82,0,9,2.73a9.56,9.56,0,0,1,3.2,7.68A10.36,10.36,0,0,1,609.76,468.92Zm-1.72.41a9,9,0,0,0,3-7.18,8.64,8.64,0,0,0-3-7c-2-1.64-4.75-2.47-8.35-2.47h-10v19.23h10C603.29,471.89,606.07,471,608,469.33Z"/><path class="cls-2" d="M612.68,484.18h-2.11L602.44,473c-1.12.11-2.05.16-2.75.16h-9.57v11h-1.7V451.35h11.27c4,0,7.08.95,9.27,2.82a10,10,0,0,1,3.34,8,10,10,0,0,1-8,10.52ZM611,483.4h.17L603,472.17l.59-.13a10.23,10.23,0,0,0,5.91-3.37,10.06,10.06,0,0,0,2.06-6.52,9.2,9.2,0,0,0-3.07-7.38c-2.05-1.75-5-2.63-8.76-2.63H589.21V483.4h.13v-11h10.35c.73,0,1.7-.06,2.89-.18l.23,0Zm-11.28-11.12H589.34v-20h10.35c3.67,0,6.57.86,8.6,2.56a9.07,9.07,0,0,1,3.1,7.32,9.4,9.4,0,0,1-3.09,7.48C606.26,471.39,603.37,472.28,599.69,472.28Zm-9.57-.79h9.57c3.48,0,6.2-.82,8.09-2.46a8.63,8.63,0,0,0,2.82-6.88,8.35,8.35,0,0,0-2.81-6.72c-1.89-1.57-4.62-2.38-8.1-2.38h-9.57Z"/><path class="cls-2" d="M648.5,453.9a16.35,16.35,0,0,1,6,5.85,15.45,15.45,0,0,1,0,16,16.56,16.56,0,0,1-6,5.87,16.61,16.61,0,0,1-16.45,0,16.51,16.51,0,0,1-6-5.87,15.46,15.46,0,0,1,0-16,16.69,16.69,0,0,1,22.46-5.84Zm-16,.81a15.72,15.72,0,0,0-5.69,5.5,14.18,14.18,0,0,0-2.11,7.53,14.35,14.35,0,0,0,2.11,7.57,15.66,15.66,0,0,0,13.44,7.56,15.39,15.39,0,0,0,7.73-2,15.56,15.56,0,0,0,5.69-5.53,14.35,14.35,0,0,0,2.11-7.57,14.18,14.18,0,0,0-2.11-7.53,15.72,15.72,0,0,0-5.69-5.5,15.64,15.64,0,0,0-15.48,0Z"/><path class="cls-2" d="M640.28,484.18a16.69,16.69,0,0,1-8.43-2.23,17,17,0,0,1-6.15-6,15.9,15.9,0,0,1,0-16.41,17,17,0,0,1,29.14,0,15.89,15.89,0,0,1,0,16.4,17,17,0,0,1-6.15,6A16.64,16.64,0,0,1,640.28,484.18Zm0-32A16.16,16.16,0,0,0,626.37,460a15.09,15.09,0,0,0,0,15.59,16.37,16.37,0,0,0,5.87,5.73,16.2,16.2,0,0,0,16.06,0,16.37,16.37,0,0,0,5.87-5.73,15.07,15.07,0,0,0,0-15.58,16.14,16.14,0,0,0-13.89-7.82Zm0,31.13a16,16,0,0,1-13.77-7.76,14.81,14.81,0,0,1-2.18-7.77,14.62,14.62,0,0,1,2.18-7.73,16.14,16.14,0,0,1,5.82-5.64,16.06,16.06,0,0,1,15.88,0A16.06,16.06,0,0,1,654,460a14.53,14.53,0,0,1,2.18,7.73,14.71,14.71,0,0,1-2.18,7.77,16,16,0,0,1-13.75,7.76Zm0-30.22a15,15,0,0,0-7.56,2,15.42,15.42,0,0,0-5.54,5.37,14.11,14.11,0,0,0,0,14.68,15.28,15.28,0,0,0,13.1,7.38,15,15,0,0,0,7.54-2,15.15,15.15,0,0,0,5.54-5.39,14.11,14.11,0,0,0,0-14.68,15.26,15.26,0,0,0-5.54-5.37A14.9,14.9,0,0,0,640.28,453.05Z"/><path class="cls-2" d="M697.17,483.79,686.85,453l-10.36,30.75h-1l-10.87-32.05h1.07l10.3,31,10.27-31h1.05l10.32,31,10.27-31H709l-10.85,32.05Z"/><path class="cls-2" d="M698.41,484.18h-1.53l-10-29.91-10.08,29.91h-1.53L664.1,451.35H666l10,30.14,10-30.14h1.62l10,30.14,10-30.14h1.88Zm-1-.78h0l-10.4-31.26H687Zm-21.64,0h0l-10.38-31.26h-.24Zm32.4-31.26-10,30.18,10.22-30.18Zm-21.64,0-9.86,29.77,10-29.77Z"/><path class="cls-2" d="M534.65,332.69C525,313.61,542.71,301.06,547,298.4c33.6,15.76,40.81,50.08,42,70.24C580.82,366.75,547.26,357.62,534.65,332.69Zm104.61,102c-19.28-25-40-28.07-68.46-32.28l-1.15-.18c-20.87-3.09-72.38-10.71-77.88-64.6q-.36-3.47-.45-7.19c.15.53.3,1.05.46,1.57,10.9,36.1,43.4,56.87,98.76,63.29,38.24,4.44,49.17,15.45,51.6,23.9C644,425.84,641.13,431.88,639.26,434.7Zm6.8-16.29c-3.83-14.16-22.35-23.27-55.06-27.06-61.9-7.19-93.23-31.33-98.58-76l-.15-1.27a83.73,83.73,0,0,1-.44-12.11c1.43-35.25,28.32-40.57,29.71-40.82,13.84-3.4,23,.32,27.83,3.46a19.32,19.32,0,0,1,4,3.3l.47.54.14.17.94,0q3.4,0,6.4.14c14,.85,21.71,5.2,25.53,8.42l-.39,0c-13.28-1.38-45.9-2.76-62.46,14.16-8.74,8.93-11.64,21.6-8.59,37.66,3.92,20.69,25.66,46.66,74.91,57.49l2.14.47.27-2.18c.08-.66,7.56-66.63-45.09-90.42l-.91-.41-.88.48c-.27.16-27.21,15.52-14.79,40.09,14.18,28,51.6,36.94,58.06,38.28.1,4.08,0,7.3-.17,9.28-45.78-10.67-66-34.69-69.62-53.83-2.78-14.69-.25-26.17,7.52-34.12,19-19.41,63.38-12.48,64.7-12.28h0l5.33.68-2.58-3.59-.06-.08-.13-.15,0,0c-.42-.41-1.46-1.37-2.66-2.64-6.7-5.91-16.74-9.77-27.89-11.08h0c-2.41-.21-5-.32-7.79-.31l-.2-.19c-3.12-3-14.61-12.14-34.85-7.17-.38.07-37.36,7.18-32.49,56.49l0,.32h-.13c0,.23-.05.46-.07.69q-.69,6.21-.74,11.85c-.77,67.38,60.76,76.48,81.76,79.59l1.14.18c29.29,4.33,48.64,7.2,67.37,32.73l1.19,1.63,1.62-1.22C642.31,438.07,648.86,428.76,646.06,418.41Z"/><rect class="cls-2" x="498.7" y="411.76" width="41.66" height="3.99" transform="translate(-76.18 707.41) rotate(-64.77)"/><rect class="cls-2" x="520.23" y="414.03" width="36.78" height="3.99" transform="translate(-87.94 681.75) rotate(-60.66)"/><rect class="cls-2" x="484.31" y="430.44" width="81" height="3.99"/><path class="cls-2" d="M596.93,282.51l-5.33-.68h0a26.3,26.3,0,0,0-5.09-4.67c-6.37-4.56-15.35-7.47-25.14-8.38a74,74,0,0,0-7.48-.29,68.5,68.5,0,0,0-22.5,4c-21.67,7.92-35.41,23-39.09,41.63a55.66,55.66,0,0,0-.49,17.91c-.16-.52-.31-1-.46-1.57q.09,3.72.45,7.19l-3,.64a66,66,0,0,1-1.5-11.68,57.17,57.17,0,0,1,.74-11.85c0-.23.07-.45.11-.68l.06-.31A53.61,53.61,0,0,1,491.83,302c6.46-14.72,19.58-26.47,38.16-33.27a71.77,71.77,0,0,1,19.38-4.09q3.12-.24,6.19-.2a72.3,72.3,0,0,1,8,.5h0c11.15,1.31,21.19,5.17,27.89,11.08a30.15,30.15,0,0,1,2.66,2.64l0,0,.13.15.06.08A24.64,24.64,0,0,1,596.93,282.51Z"/></svg>